<?xml version="1.0" standalone="no"?>
<!DOCTYPE svg PUBLIC "-//W3C//DTD SVG 20010904//EN"
 "http://www.w3.org/TR/2001/REC-SVG-20010904/DTD/svg10.dtd">
<svg version="1.0" xmlns="http://www.w3.org/2000/svg"
 width="256.000000pt" height="256.000000pt" viewBox="0 0 256.000000 256.000000"
 preserveAspectRatio="xMidYMid meet">

<g transform="translate(0.000000,256.000000) scale(0.100000,-0.100000)"
fill="#000000" stroke="none">
<path d="M1108 2478 c-25 -20 -41 -245 -33 -459 6 -148 5 -179 -6 -183 -8 -3
-245 -22 -527 -44 -281 -21 -514 -41 -516 -43 -3 -2 -10 -87 -16 -189 -8 -131
-9 -287 -2 -538 5 -194 11 -355 14 -357 15 -15 416 -27 688 -20 168 4 337 8
375 9 l70 1 5 -278 c5 -261 6 -280 24 -293 43 -31 80 -18 148 49 206 202 568
483 1053 817 83 56 156 110 163 118 6 9 12 30 12 46 0 26 -18 48 -118 146 -65
63 -155 160 -201 215 -303 365 -718 760 -1003 956 -91 62 -104 67 -130 47z
m417 -468 c268 -240 380 -348 528 -508 149 -160 327 -370 327 -384 0 -8 -316
-246 -425 -320 -70 -48 -99 -70 -261 -208 -49 -41 -120 -96 -159 -122 -71 -47
-225 -128 -244 -128 -8 0 -11 69 -11 208 0 188 -2 211 -18 225 -25 23 -306 25
-407 3 -186 -41 -423 -45 -605 -11 -47 9 -92 18 -100 20 -13 4 -15 61 -15 435
l0 430 75 1 c41 0 246 4 455 9 356 7 385 9 452 30 40 13 74 28 77 35 2 7 8
137 12 289 l7 276 81 -73 c45 -40 149 -133 231 -207z"/>
<path d="M1469 1712 c-110 -41 -213 -128 -207 -177 2 -15 13 -34 26 -43 21
-14 24 -12 70 38 55 61 105 89 172 97 42 5 51 3 73 -19 14 -14 30 -43 36 -63
10 -38 9 -40 -46 -103 -31 -35 -85 -85 -119 -111 l-63 -46 -1 -61 c0 -54 3
-63 29 -88 16 -16 37 -26 48 -24 16 3 18 13 16 73 l-3 70 46 29 c67 42 159
131 179 171 33 71 -16 200 -93 242 -53 29 -108 34 -163 15z"/>
<path d="M1492 933 c-7 -3 -17 -14 -23 -25 -8 -15 -7 -24 7 -39 22 -24 36 -24
59 1 18 20 18 21 -6 44 -13 13 -30 22 -37 19z"/>
</g>
</svg>
